<svg width="1287" height="439" viewBox="0 0 1287 439" fill="none" xmlns="http://www.w3.org/2000/svg">
<g clip-path="url(#clip0_185_774)">
<path d="M406.497 290.648V150.648H440.697V290.648H406.497ZM319.497 290.648V150.648H353.697V290.648H319.497ZM333.097 236.248V205.448H424.497V236.248H333.097ZM522.952 292.648C511.219 292.648 500.952 290.315 492.152 285.648C483.485 280.982 476.752 274.582 471.952 266.448C467.285 258.182 464.952 248.782 464.952 238.248C464.952 229.982 466.285 222.448 468.952 215.648C471.619 208.715 475.352 202.782 480.152 197.848C485.085 192.915 490.819 189.115 497.352 186.448C504.019 183.648 511.285 182.248 519.152 182.248C526.619 182.248 533.419 183.582 539.552 186.248C545.685 188.915 551.019 192.648 555.552 197.448C560.085 202.248 563.552 207.915 565.952 214.448C568.352 220.982 569.485 228.115 569.352 235.848L569.152 244.648H484.752L479.952 226.448H542.952L539.552 230.048V226.048C539.285 222.715 538.219 219.848 536.352 217.448C534.619 214.915 532.285 212.915 529.352 211.448C526.552 209.982 523.352 209.248 519.752 209.248C514.419 209.248 509.885 210.315 506.152 212.448C502.552 214.448 499.819 217.382 497.952 221.248C496.085 225.115 495.152 229.915 495.152 235.648C495.152 241.382 496.352 246.448 498.752 250.848C501.285 255.248 504.885 258.648 509.552 261.048C514.352 263.448 520.019 264.648 526.552 264.648C530.952 264.648 534.952 263.982 538.552 262.648C542.152 261.315 546.019 259.048 550.152 255.848L565.152 277.048C561.019 280.515 556.619 283.448 551.952 285.848C547.285 288.115 542.485 289.782 537.552 290.848C532.752 292.048 527.885 292.648 522.952 292.648ZM601.382 336.648L625.582 279.848L625.982 296.648L574.582 184.448H610.982L633.382 238.048C634.582 240.582 635.715 243.448 636.782 246.648C637.848 249.848 638.648 252.848 639.182 255.648L634.582 258.248C635.382 256.248 636.248 253.715 637.182 250.648C638.248 247.582 639.382 244.315 640.582 240.848L660.182 184.448H696.782L651.782 290.648L633.582 336.648H601.382ZM761.8 292.648C747.934 292.648 736.2 290.248 726.6 285.448C717.134 280.515 709 273.582 702.2 264.648L723 241.248C729.534 250.182 736.134 256.182 742.8 259.248C749.467 262.315 756.334 263.848 763.4 263.848C767 263.848 770.2 263.382 773 262.448C775.934 261.515 778.2 260.182 779.8 258.448C781.534 256.582 782.4 254.382 782.4 251.848C782.4 249.848 781.867 248.048 780.8 246.448C779.867 244.848 778.534 243.448 776.8 242.248C775.067 241.048 773.067 239.982 770.8 239.048C768.534 237.982 766 237.115 763.2 236.448C760.534 235.782 757.8 235.182 755 234.648C747.267 233.048 740.534 230.982 734.8 228.448C729.2 225.782 724.467 222.648 720.6 219.048C716.867 215.315 714.067 211.115 712.2 206.448C710.334 201.648 709.4 196.248 709.4 190.248C709.4 181.715 711.8 174.248 716.6 167.848C721.534 161.448 728 156.448 736 152.848C744 149.248 752.667 147.448 762 147.448C775.6 147.448 786.534 149.648 794.8 154.048C803.2 158.315 809.867 164.248 814.8 171.848L793.6 192.448C789.467 187.115 784.734 183.115 779.4 180.448C774.2 177.782 768.734 176.448 763 176.448C759.134 176.448 755.734 176.915 752.8 177.848C749.867 178.782 747.6 180.182 746 182.048C744.534 183.782 743.8 185.915 743.8 188.448C743.8 190.582 744.4 192.515 745.6 194.248C746.934 195.848 748.734 197.248 751 198.448C753.267 199.648 755.867 200.715 758.8 201.648C761.734 202.448 764.8 203.115 768 203.648C775.334 205.115 781.934 207.048 787.8 209.448C793.8 211.848 798.934 214.848 803.2 218.448C807.467 221.915 810.734 226.048 813 230.848C815.4 235.515 816.6 240.915 816.6 247.048C816.6 256.648 814.267 264.848 809.6 271.648C804.934 278.448 798.467 283.648 790.2 287.248C781.934 290.848 772.467 292.648 761.8 292.648ZM895.553 290.648V225.448C895.553 219.982 894.02 215.982 890.953 213.448C888.02 210.782 883.887 209.448 878.553 209.448C873.353 209.448 868.687 210.448 864.553 212.448C860.553 214.315 856.687 217.448 852.953 221.848L833.753 203.248C840.153 196.715 847.487 191.582 855.753 187.848C864.02 184.115 873.02 182.248 882.753 182.248C891.687 182.248 899.42 183.582 905.953 186.248C912.487 188.915 917.553 192.982 921.153 198.448C924.753 203.915 926.553 210.848 926.553 219.248V290.648H895.553ZM867.953 292.648C861.287 292.648 855.22 291.315 849.753 288.648C844.42 285.982 840.153 282.315 836.953 277.648C833.887 272.848 832.353 267.248 832.353 260.848C832.353 255.382 833.353 250.582 835.353 246.448C837.353 242.315 840.287 238.915 844.153 236.248C848.153 233.448 853.087 231.382 858.953 230.048C864.953 228.582 871.887 227.848 879.753 227.848H911.953L910.153 248.048H880.553C877.753 248.048 875.287 248.315 873.153 248.848C871.02 249.248 869.22 249.982 867.753 251.048C866.287 251.982 865.153 253.115 864.353 254.448C863.687 255.782 863.353 257.382 863.353 259.248C863.353 261.248 863.887 262.982 864.953 264.448C866.02 265.915 867.42 267.048 869.153 267.848C871.02 268.648 873.153 269.048 875.553 269.048C879.02 269.048 882.287 268.515 885.353 267.448C888.553 266.248 891.353 264.582 893.753 262.448C896.287 260.315 898.287 257.848 899.753 255.048L905.353 269.448C902.553 273.982 899.153 277.982 895.153 281.448C891.287 284.915 887.02 287.648 882.353 289.648C877.82 291.648 873.02 292.648 867.953 292.648ZM952.235 290.648V142.648H984.435V290.648H952.235ZM1067.62 290.648V225.448C1067.62 219.982 1066.09 215.982 1063.02 213.448C1060.09 210.782 1055.96 209.448 1050.62 209.448C1045.42 209.448 1040.76 210.448 1036.62 212.448C1032.62 214.315 1028.76 217.448 1025.02 221.848L1005.82 203.248C1012.22 196.715 1019.56 191.582 1027.82 187.848C1036.09 184.115 1045.09 182.248 1054.82 182.248C1063.76 182.248 1071.49 183.582 1078.02 186.248C1084.56 188.915 1089.62 192.982 1093.22 198.448C1096.82 203.915 1098.62 210.848 1098.62 219.248V290.648H1067.62ZM1040.02 292.648C1033.36 292.648 1027.29 291.315 1021.82 288.648C1016.49 285.982 1012.22 282.315 1009.02 277.648C1005.96 272.848 1004.42 267.248 1004.42 260.848C1004.42 255.382 1005.42 250.582 1007.42 246.448C1009.42 242.315 1012.36 238.915 1016.22 236.248C1020.22 233.448 1025.16 231.382 1031.02 230.048C1037.02 228.582 1043.96 227.848 1051.82 227.848H1084.02L1082.22 248.048H1052.62C1049.82 248.048 1047.36 248.315 1045.22 248.848C1043.09 249.248 1041.29 249.982 1039.82 251.048C1038.36 251.982 1037.22 253.115 1036.42 254.448C1035.76 255.782 1035.42 257.382 1035.42 259.248C1035.42 261.248 1035.96 262.982 1037.02 264.448C1038.09 265.915 1039.49 267.048 1041.22 267.848C1043.09 268.648 1045.22 269.048 1047.62 269.048C1051.09 269.048 1054.36 268.515 1057.42 267.448C1060.62 266.248 1063.42 264.582 1065.82 262.448C1068.36 260.315 1070.36 257.848 1071.82 255.048L1077.42 269.448C1074.62 273.982 1071.22 277.982 1067.22 281.448C1063.36 284.915 1059.09 287.648 1054.42 289.648C1049.89 291.648 1045.09 292.648 1040.02 292.648ZM1164.7 292.648C1155.64 292.648 1147.44 290.315 1140.1 285.648C1132.9 280.982 1127.24 274.515 1123.1 266.248C1118.97 257.848 1116.9 248.315 1116.9 237.648C1116.9 226.982 1118.97 217.515 1123.1 209.248C1127.24 200.848 1132.9 194.248 1140.1 189.448C1147.44 184.648 1155.7 182.248 1164.9 182.248C1169.7 182.248 1174.3 182.982 1178.7 184.448C1183.24 185.915 1187.24 187.915 1190.7 190.448C1194.3 192.982 1197.24 195.848 1199.5 199.048C1201.77 202.248 1203.17 205.648 1203.7 209.248L1195.9 211.048V142.648H1228.1V290.648H1198.1L1196.3 266.648L1202.7 267.848C1202.44 271.048 1201.24 274.182 1199.1 277.248C1196.97 280.182 1194.1 282.848 1190.5 285.248C1187.04 287.515 1183.1 289.315 1178.7 290.648C1174.3 291.982 1169.64 292.648 1164.7 292.648ZM1172.7 266.048C1177.64 266.048 1181.84 264.915 1185.3 262.648C1188.9 260.248 1191.7 256.915 1193.7 252.648C1195.7 248.382 1196.7 243.382 1196.7 237.648C1196.7 231.782 1195.7 226.715 1193.7 222.448C1191.7 218.182 1188.9 214.915 1185.3 212.648C1181.84 210.248 1177.64 209.048 1172.7 209.048C1167.9 209.048 1163.7 210.248 1160.1 212.648C1156.64 214.915 1153.9 218.182 1151.9 222.448C1149.9 226.715 1148.9 231.782 1148.9 237.648C1148.9 243.382 1149.9 248.382 1151.9 252.648C1153.9 256.915 1156.64 260.248 1160.1 262.648C1163.7 264.915 1167.9 266.048 1172.7 266.048Z" fill="white"/>
<g clip-path="url(#clip1_185_774)">
<path d="M145.097 170.147C154.257 168.394 175.597 81.1472 241.842 141.731C291.097 186.778 268.143 273.072 204.51 295.056C140.875 317.039 100.097 299.981 81.5622 282.813C43.5973 247.647 15.0974 165.647 135.597 170.147L145.097 170.147Z" fill="#ED4C4C"/>
<path d="M177.224 164.491C171.485 168.565 160.023 194.769 170.753 205.3C181.484 215.832 198.703 196.737 205.284 196.477C211.866 196.216 221.342 212.756 215.717 230.121C210.091 247.487 198.721 254.032 190.036 251.451C181.353 248.87 164.353 221.618 159.477 223.982C154.602 226.345 173.464 250.676 170.241 262.001C167.017 273.326 144.839 270.719 132.08 265.75C119.322 260.779 116.68 255.013 120.066 245.589C123.452 236.166 150.804 223.265 135.663 205.138C120.522 187.012 87.2368 204.989 88.189 247.141C89.1412 289.293 175.469 292.152 203.633 268.269C231.798 244.385 241.504 213.523 235.093 190.693C227.861 164.94 203.115 146.109 177.222 164.488L177.224 164.491Z" fill="black"/>
</g>
</g>
<defs>
<clipPath id="clip0_185_774">
<rect width="1287" height="439" fill="white"/>
</clipPath>
<clipPath id="clip1_185_774">
<rect width="224" height="231" fill="white" transform="translate(21 289.632) rotate(-80.0522)"/>
</clipPath>
</defs>
</svg>
